# xmcd
#
# Track frame offsets:
# 150
# 15760
# 28885
# 41095
# 56795
# 73250
# 85390
# 100610
# 112295
# 126515
# 136555
# 149515
# 164635
# 179210
# 191980
# 209432
# 222080
# 231700
# 241770
# 253320
#
# Disc length: 3563 seconds
#
#
# Revision: 0
# Processed by: cddbd v1.5.2PL0 Copyright (c) Steve Scherf et al.
# Submitted via: FreeRIP 2.945 
#
DISCID=440de914
DTITLE=Chrystian and Ralf - 20 Preferidas
DYEAR=1996
DGENRE=Sertanejo
TTITLE0=Boiada
TTITLE1=Pagode em Brasília
TTITLE2=O drama de uma boiadeiro
TTITLE3=Hino de Reis
TTITLE4=A lenda do caipora
TTITLE5=O futuro é uma incerteza
TTITLE6=Peão da cidade
TTITLE7=Gamei por você
TTITLE8=Noite de tortura
TTITLE9=Lista negra
TTITLE10=Mel, vinho e veneno
TTITLE11=Caprichos de mulher
TTITLE12=Erramos juntos
TTITLE13=Coração doente
TTITLE14=Anoche estuve llorando
TTITLE15=Casa de esquina
TTITLE16=Louca paixão
TTITLE17=Vestido colado
TTITLE18=Uma noite no sofá
TTITLE19=O amor é cego
EXTD=
EXTT0=
EXTT1=
EXTT2=
EXTT3=
EXTT4=
EXTT5=
EXTT6=
EXTT7=
EXTT8=
EXTT9=
EXTT10=
EXTT11=
EXTT12=
EXTT13=
EXTT14=
EXTT15=
EXTT16=
EXTT17=
EXTT18=
EXTT19=
PLAYORDER=
